<svg width="200" height="104" viewBox="0 0 200 104" fill="none" xmlns="http://www.w3.org/2000/svg">
<g id="Logo">
<g id="Circle">
<circle id="Ellipse" cx="100" cy="55" r="24" stroke="white" stroke-width="2"/>
</g>
<path id="RS" d="M89.6611 55.4639C89.7197 55.4736 89.7783 55.4785 89.8369 55.4785C89.9053 55.4785 89.9736 55.4785 90.042 55.4785C90.8916 55.4785 91.6924 55.2979 92.4443 54.9365C93.2061 54.5654 93.8701 54.0967 94.4365 53.5303C95.0029 52.9639 95.4473 52.334 95.7695 51.6406C96.1016 50.9473 96.2676 50.2734 96.2676 49.6191C96.2676 49.1504 96.1797 48.7061 96.0039 48.2861C95.8379 47.8662 95.5693 47.5 95.1982 47.1875C94.8369 46.875 94.3682 46.626 93.792 46.4404C93.2256 46.2549 92.5469 46.1621 91.7559 46.1621C90.8672 46.1621 90.1006 46.2451 89.4561 46.4111C88.8213 46.5771 88.2695 46.792 87.8008 47.0557C87.3418 47.3193 86.9512 47.6221 86.6289 47.9639C86.3164 48.3057 86.043 48.6572 85.8086 49.0186C85.584 49.3799 85.3789 49.7314 85.1934 50.0732C85.0078 50.415 84.8125 50.7178 84.6074 50.9814C84.4121 51.2451 84.1924 51.46 83.9482 51.626C83.7041 51.792 83.4014 51.875 83.04 51.875C82.5518 51.875 82.1855 51.7529 81.9414 51.5088C81.6973 51.2549 81.5752 50.9033 81.5752 50.4541C81.5752 50.0342 81.6875 49.5801 81.9121 49.0918C82.1465 48.6035 82.4736 48.1152 82.8936 47.627C83.3232 47.1387 83.8457 46.6699 84.4609 46.2207C85.0762 45.7617 85.7646 45.3613 86.5264 45.0195C87.2979 44.668 88.1377 44.3896 89.0459 44.1846C89.9541 43.9697 90.916 43.8623 91.9316 43.8623C92.9277 43.8623 93.8799 43.9893 94.7881 44.2432C95.7061 44.4971 96.5166 44.8779 97.2197 45.3857C97.9229 45.8838 98.4795 46.5137 98.8896 47.2754C99.3096 48.0371 99.5195 48.9258 99.5195 49.9414C99.5195 50.625 99.3926 51.2793 99.1387 51.9043C98.8945 52.5195 98.5625 53.1006 98.1426 53.6475C97.7227 54.1846 97.2295 54.6826 96.6631 55.1416C96.1064 55.5908 95.5107 55.9912 94.876 56.3428C94.2412 56.6943 93.5869 56.9922 92.9131 57.2363C92.249 57.4805 91.6045 57.6562 90.9795 57.7637C91.0674 58.2227 91.209 58.7402 91.4043 59.3164C91.6094 59.8828 91.8535 60.4248 92.1367 60.9424C92.4297 61.4502 92.752 61.8848 93.1035 62.2461C93.4551 62.6074 93.8262 62.8027 94.2168 62.832C94.2949 62.8418 94.3682 62.8467 94.4365 62.8467C94.5049 62.8467 94.5732 62.8467 94.6416 62.8467C95.3545 62.8467 95.9893 62.7295 96.5459 62.4951C97.1025 62.2607 97.5664 62.002 97.9375 61.7188C98.377 61.3965 98.7578 61.0205 99.0801 60.5908C99.3828 60.249 99.6904 60.0781 100.003 60.0781C100.198 60.0781 100.364 60.1465 100.501 60.2832C100.638 60.4199 100.706 60.6055 100.706 60.8398C100.706 61.0645 100.633 61.3281 100.486 61.6309C100.35 61.9238 100.11 62.2314 99.7686 62.5537C98.7627 63.501 97.7764 64.1943 96.8096 64.6338C95.8525 65.0635 94.9443 65.2783 94.085 65.2783C93.3818 65.2783 92.7324 65.0781 92.1367 64.6777C91.541 64.2773 90.999 63.7354 90.5107 63.0518C90.0225 62.3682 89.5781 61.5723 89.1777 60.6641C88.7773 59.7461 88.4209 58.7793 88.1084 57.7637C87.9326 58.1641 87.752 58.6377 87.5664 59.1846C87.3809 59.7217 87.1807 60.2783 86.9658 60.8545C86.751 61.4307 86.5264 62.002 86.292 62.5684C86.0576 63.125 85.7988 63.6279 85.5156 64.0771C85.2324 64.5166 84.9297 64.873 84.6074 65.1465C84.2852 65.4199 83.9336 65.5566 83.5527 65.5566C83.2402 65.5566 82.9863 65.5078 82.791 65.4102C82.5957 65.3125 82.4443 65.1904 82.3369 65.0439C82.2295 64.8975 82.1514 64.7363 82.1025 64.5605C82.0635 64.3848 82.0439 64.2188 82.0439 64.0625C82.0439 63.8379 82.0732 63.6084 82.1318 63.374C82.1904 63.1396 82.2734 62.9199 82.3809 62.7148L86.7021 54.8047C87.0732 54.1406 87.4443 53.501 87.8154 52.8857C88.1963 52.2607 88.5625 51.709 88.9141 51.2305C89.2754 50.752 89.6123 50.3711 89.9248 50.0879C90.2471 49.7949 90.5352 49.6484 90.7891 49.6484C90.8574 49.6484 90.9404 49.6631 91.0381 49.6924C91.1357 49.7119 91.2236 49.7559 91.3018 49.8242C91.3799 49.8828 91.4482 49.9756 91.5068 50.1025C91.5654 50.2197 91.5947 50.3711 91.5947 50.5566C91.5947 50.7422 91.541 51.001 91.4336 51.333C91.3262 51.665 91.1846 52.0459 91.0088 52.4756C90.833 52.9053 90.6279 53.3789 90.3936 53.8965C90.1592 54.4043 89.915 54.9268 89.6611 55.4639ZM105.013 56.8408C105.296 56.8408 105.501 56.958 105.628 57.1924C105.765 57.417 105.833 57.6758 105.833 57.9688C105.833 58.1152 105.818 58.2422 105.789 58.3496C105.76 58.457 105.701 58.5596 105.613 58.6572C105.525 58.7451 105.408 58.833 105.262 58.9209C105.115 58.999 104.925 59.0869 104.69 59.1846C104.144 59.4189 103.714 59.7021 103.401 60.0342C103.089 60.3564 102.933 60.6787 102.933 61.001C102.933 61.2061 103.001 61.4014 103.138 61.5869C103.274 61.7725 103.489 61.9385 103.782 62.085C104.075 62.2217 104.451 62.334 104.91 62.4219C105.379 62.5 105.94 62.5391 106.595 62.5391C107.269 62.5391 107.908 62.4609 108.514 62.3047C109.119 62.1387 109.646 61.9092 110.096 61.6162C110.555 61.3232 110.916 60.9766 111.18 60.5762C111.453 60.1758 111.59 59.7412 111.59 59.2725C111.59 58.9209 111.443 58.5547 111.15 58.1738C110.857 57.793 110.394 57.3975 109.759 56.9873C108.636 56.2549 107.781 55.6641 107.195 55.2148C106.619 54.7656 106.263 54.4824 106.126 54.3652C105.394 53.7207 104.847 53.1006 104.485 52.5049C104.124 51.9092 103.943 51.2891 103.943 50.6445C103.943 50.0488 104.085 49.4678 104.368 48.9014C104.661 48.335 105.052 47.8027 105.54 47.3047C106.028 46.8066 106.59 46.3477 107.225 45.9277C107.869 45.498 108.538 45.1318 109.231 44.8291C109.935 44.5264 110.638 44.292 111.341 44.126C112.054 43.9502 112.728 43.8623 113.362 43.8623C113.841 43.8623 114.28 43.916 114.681 44.0234C115.091 44.1309 115.447 44.3018 115.75 44.5361C116.053 44.7607 116.287 45.0537 116.453 45.415C116.629 45.7764 116.717 46.2109 116.717 46.7188C116.717 47.4512 116.507 48.1494 116.087 48.8135C115.667 49.4775 115.027 50.0977 114.168 50.6738C113.787 50.9375 113.436 51.0693 113.113 51.0693C112.781 51.0693 112.518 50.9521 112.322 50.7178C112.127 50.4736 112.029 50.1904 112.029 49.8682C112.029 49.5947 112.107 49.3213 112.264 49.0479C112.43 48.7744 112.693 48.54 113.055 48.3447C113.338 48.1982 113.587 48.0029 113.802 47.7588C114.026 47.5049 114.139 47.2607 114.139 47.0264C114.139 46.8018 114.061 46.6553 113.904 46.5869C113.758 46.5186 113.577 46.4844 113.362 46.4844C112.952 46.4844 112.503 46.5381 112.015 46.6455C111.536 46.7432 111.053 46.8799 110.564 47.0557C110.086 47.2314 109.617 47.4414 109.158 47.6855C108.709 47.9297 108.309 48.1934 107.957 48.4766C107.615 48.7598 107.337 49.0625 107.122 49.3848C106.917 49.6973 106.814 50.0098 106.814 50.3223C106.814 50.5371 106.858 50.7373 106.946 50.9229C107.034 51.1084 107.161 51.2939 107.327 51.4795C107.503 51.665 107.713 51.8604 107.957 52.0654C108.201 52.2607 108.484 52.4756 108.807 52.71L112.234 55.2441C112.674 55.5664 113.064 55.8838 113.406 56.1963C113.758 56.499 114.051 56.8066 114.285 57.1191C114.52 57.4219 114.7 57.7295 114.827 58.042C114.954 58.3545 115.018 58.6865 115.018 59.0381C115.018 59.8193 114.812 60.5859 114.402 61.3379C114.002 62.0801 113.426 62.7441 112.674 63.3301C111.932 63.916 111.033 64.3896 109.979 64.751C108.934 65.1123 107.771 65.293 106.492 65.293C105.301 65.293 104.285 65.1953 103.445 65C102.615 64.8145 101.932 64.5605 101.395 64.2383C100.857 63.9062 100.467 63.5303 100.223 63.1104C99.9785 62.6807 99.8564 62.2314 99.8564 61.7627C99.8564 61.2744 99.9785 60.7812 100.223 60.2832C100.477 59.7754 100.828 59.2969 101.277 58.8477C101.736 58.3984 102.283 57.998 102.918 57.6465C103.553 57.2949 104.251 57.0264 105.013 56.8408Z" fill="white"/>
</g>
</svg>
