<svg width="29" height="46" viewBox="0 0 29 46" fill="none" xmlns="http://www.w3.org/2000/svg">
<path d="M10.6581 0.467937C8.20638 1.16048 6.01046 2.50439 4.2603 4.29752C1.63324 6.98909 0.00365448 10.7026 0.00365448 14.7905L0.00365448 31.1458C0.00365448 35.2337 1.63324 38.9473 4.2603 41.6388C6.88736 44.3304 10.5119 46 14.5018 46C18.4881 46 22.1163 44.3304 24.7434 41.6388C27.3704 38.9473 29 35.23 29 31.1458L29 14.7943C29 10.7064 27.3704 6.99284 24.7434 4.30127C22.7009 2.20866 20.0592 0.733723 17.1106 0.179687C15.3276 -0.157227 12.3023 0.00374222 10.6581 0.467937ZM14.6662 11.5374C13.1499 11.5374 11.9076 12.8102 11.9076 14.3638V17.2762C11.9076 18.8298 13.1499 20.1025 14.6662 20.1025C16.1826 20.1025 17.4248 18.8298 17.4248 17.2762L17.4248 14.3638C17.4248 12.8102 16.1862 11.5374 14.6662 11.5374ZM6.68275 6.77946C8.68867 4.72429 11.4582 3.44401 14.5018 3.44401C17.5454 3.44401 20.3113 4.72054 22.3209 6.77946C24.3268 8.83464 25.5764 11.6722 25.5764 14.7905L25.5764 31.1458C25.5764 34.2642 24.3305 37.098 22.3209 39.1569C20.315 41.2121 17.5454 42.4924 14.5018 42.4924C11.4582 42.4924 8.69233 41.2158 6.68275 39.1569C4.67683 37.1017 3.42724 34.2642 3.42724 31.1458L3.42724 14.7943C3.42724 11.6722 4.67318 8.83838 6.68275 6.77946Z" fill="#F8DAFD"/>
</svg>

